name ./resultDataOpenSim/trcMotMarkerGrf/sub06/grf-05-02.mot
datacolumns 19
datarows 17
range 1.08800000 1.15200000
endheader

                time	     ground_force_vx	     ground_force_vy	     ground_force_vz	     ground_force_px	     ground_force_py	     ground_force_pz	   l_ground_force_vx	   l_ground_force_vy	   l_ground_force_vz	   l_ground_force_px	   l_ground_force_py	   l_ground_force_pz	     ground_torque_x	     ground_torque_y	     ground_torque_z	   l_ground_torque_x	   l_ground_torque_y	   l_ground_torque_z	
          1.08800000	          0.00000000	          0.00000000	          0.00000000	          0.00000000	          0.00000000	          0.00000000	         99.57127735	        708.28194305	         30.68567264	          0.06609128	         -0.10000000	         -0.01576092	          0.00000000	          0.00000000	          0.00000000	          0.00000000	         -2.69668322	          0.00000000	
          1.09200000	          0.00000000	          0.00000000	          0.00000000	          0.00000000	          0.00000000	          0.00000000	        108.65886689	        729.22521280	         29.93902265	          0.06656356	         -0.10000000	         -0.01540395	          0.00000000	          0.00000000	          0.00000000	          0.00000000	         -2.83180863	          0.00000000	
          1.09600000	          0.00000000	          0.00000000	          0.00000000	          0.00000000	          0.00000000	          0.00000000	        117.94794180	        748.44644399	         29.00594948	          0.06704179	         -0.10000000	         -0.01503417	          0.00000000	          0.00000000	          0.00000000	          0.00000000	         -2.95891935	          0.00000000	
          1.10000000	          0.00000000	          0.00000000	          0.00000000	          0.00000000	          0.00000000	          0.00000000	        127.25901876	        765.77177217	         27.97325105	          0.06755283	         -0.10000000	         -0.01465586	          0.00000000	          0.00000000	          0.00000000	          0.00000000	         -3.07080937	          0.00000000	
          1.10400000	          0.00000000	          0.00000000	          0.00000000	          0.00000000	          0.00000000	          0.00000000	        136.41547366	        780.97698491	         26.91900479	          0.06810729	         -0.10000000	         -0.01427202	          0.00000000	          0.00000000	          0.00000000	          0.00000000	         -3.16174013	          0.00000000	
          1.10800000	          0.00000000	          0.00000000	          0.00000000	          0.00000000	          0.00000000	          0.00000000	        145.26204923	        793.77191717	         25.87912705	          0.06870005	         -0.10000000	         -0.01388759	          0.00000000	          0.00000000	          0.00000000	          0.00000000	         -3.22849286	          0.00000000	
          1.11200000	          0.00000000	          0.00000000	          0.00000000	          0.00000000	          0.00000000	          0.00000000	        153.68688930	        803.83121118	         24.84522361	          0.06932884	         -0.10000000	         -0.01349763	          0.00000000	          0.00000000	          0.00000000	          0.00000000	         -3.27057257	          0.00000000	
          1.11600000	          0.00000000	          0.00000000	          0.00000000	          0.00000000	          0.00000000	          0.00000000	        161.63806412	        810.84834783	         23.77891490	          0.06996356	         -0.10000000	         -0.01311195	          0.00000000	          0.00000000	          0.00000000	          0.00000000	         -3.28960611	          0.00000000	
          1.12000000	          0.00000000	          0.00000000	          0.00000000	          0.00000000	          0.00000000	          0.00000000	        169.10846279	        814.56941910	         22.62803174	          0.07057729	         -0.10000000	         -0.01274249	          0.00000000	          0.00000000	          0.00000000	          0.00000000	         -3.28828728	          0.00000000	
          1.12400000	          0.00000000	          0.00000000	          0.00000000	          0.00000000	          0.00000000	          0.00000000	        176.07736857	        814.79801376	         21.34775323	          0.07115837	         -0.10000000	         -0.01239109	          0.00000000	          0.00000000	          0.00000000	          0.00000000	         -3.26924224	          0.00000000	
          1.12800000	          0.00000000	          0.00000000	          0.00000000	          0.00000000	          0.00000000	          0.00000000	        182.44993369	        811.36851373	         19.92038197	          0.07172094	         -0.10000000	         -0.01204918	          0.00000000	          0.00000000	          0.00000000	          0.00000000	         -3.23407031	          0.00000000	
          1.13200000	          0.00000000	          0.00000000	          0.00000000	          0.00000000	          0.00000000	          0.00000000	        188.05441131	        804.10467218	         18.35795493	          0.07229648	         -0.10000000	         -0.01170012	          0.00000000	          0.00000000	          0.00000000	          0.00000000	         -3.18273517	          0.00000000	
          1.13600000	          0.00000000	          0.00000000	          0.00000000	          0.00000000	          0.00000000	          0.00000000	        192.69841813	        792.79208992	         16.68063214	          0.07290332	         -0.10000000	         -0.01133505	          0.00000000	          0.00000000	          0.00000000	          0.00000000	         -3.11341644	          0.00000000	
          1.14000000	          0.00000000	          0.00000000	          0.00000000	          0.00000000	          0.00000000	          0.00000000	        196.22041346	        777.17862208	         14.89402338	          0.07353762	         -0.10000000	         -0.01096408	          0.00000000	          0.00000000	          0.00000000	          0.00000000	         -3.02282492	          0.00000000	
          1.14400000	          0.00000000	          0.00000000	          0.00000000	          0.00000000	          0.00000000	          0.00000000	        198.47863995	        756.98317007	         12.99889378	          0.07418912	         -0.10000000	         -0.01060734	          0.00000000	          0.00000000	          0.00000000	          0.00000000	         -2.90691149	          0.00000000	
          1.14800000	         -7.17240557	         75.34140252	          4.92880637	          0.70112880	          0.00000000	          0.09549478	        199.29365101	        731.90041953	         11.01923669	          0.07486261	         -0.10000000	         -0.01028103	          0.00000000	          0.76079354	          0.00000000	          0.00000000	         -2.76188302	          0.00000000	
          1.15200000	        -13.37937033	        192.22814367	         14.15355318	          0.70550341	          0.00000000	          0.09367095	        198.42065150	        701.63856906	          9.01327960	          0.07557595	         -0.10000000	         -0.00999525	          0.00000000	          0.51792406	          0.00000000	          0.00000000	         -2.58536770	          0.00000000	
